<?xml version="1.0" encoding="UTF-8" standalone="no"?>
<svg width="189px" height="48px" viewBox="0 0 189 48" version="1.1" xmlns="http://www.w3.org/2000/svg" xmlns:xlink="http://www.w3.org/1999/xlink" xmlns:sketch="http://www.bohemiancoding.com/sketch/ns">
    <!-- Generator: Sketch 3.2.2 (9983) - http://www.bohemiancoding.com/sketch -->
    <title>wannago + Group</title>
    <desc>Created with Sketch.</desc>
    <defs></defs>
    <g id="Page-1" stroke="none" stroke-width="1" fill="none" fill-rule="evenodd" sketch:type="MSPage">
        <g id="Desktop-HD" sketch:type="MSArtboardGroup" transform="translate(-34.000000, -20.000000)" fill="#FFFFFF">
            <g id="Imported-EPS" sketch:type="MSLayerGroup" transform="translate(33.000000, 20.000000)">
                <g id="Page-1">
                    <g id="wannago-+-Group">
                        <text id="wannago" sketch:type="MSTextLayer" font-family="Neutra Text" font-size="44" font-weight="313" letter-spacing="-0.0127111105">
                            <tspan x="0.5116" y="37.7535">wanna</tspan>
                            <tspan x="117.136044" y="37.7535" letter-spacing="-0.00932148099">go</tspan>
                        </text>
                        <g id="Group" transform="translate(165.000000, 0.000000)" sketch:type="MSShapeGroup">
                            <path d="M12.5176563,24.3496094 C5.8653125,24.3496094 0.4528125,18.9378906 0.4528125,12.2847656 C0.4528125,5.63242187 5.8653125,0.219921875 12.5176563,0.219921875 C19.1707813,0.219921875 24.5825,5.63242187 24.5825,12.2847656 C24.5825,18.9378906 19.1707813,24.3496094 12.5176563,24.3496094 L12.5176563,24.3496094 Z M12.5176563,1.41757812 C6.52546875,1.41757812 1.65046875,6.29257812 1.65046875,12.2847656 C1.65046875,18.2769531 6.52546875,23.1519531 12.5176563,23.1519531 C18.5098438,23.1519531 23.3848438,18.2769531 23.3848438,12.2847656 C23.3848438,6.29257812 18.5098438,1.41757812 12.5176563,1.41757812 L12.5176563,1.41757812 Z" id="Fill-1"></path>
                            <path d="M11.9192188,0.819140625 L13.116875,0.819140625 L13.116875,23.7511719 L11.9192188,23.7511719 L11.9192188,0.819140625 Z" id="Fill-2"></path>
                            <path d="M22.2348438,6.65585937 C19.4785938,7.02460938 16.0746875,7.22617187 12.5176563,7.22617187 C8.8309375,7.22617187 5.30671875,7.00976562 2.4996875,6.61445312 C2.3309375,7.01523438 2.104375,7.38945313 1.8325,7.72773437 C4.7715625,8.17773438 8.535625,8.42460937 12.5176563,8.42460937 C16.4434375,8.42460937 20.154375,8.18476563 23.0746875,7.74648437 C22.745,7.42539062 22.4614063,7.05820312 22.2348438,6.65585937" id="Fill-3"></path>
                            <path d="M23.1832813,16.2191406 C20.2817188,16.6761719 16.4934375,16.9277344 12.5176563,16.9277344 C8.541875,16.9277344 4.754375,16.6761719 1.85203125,16.2191406 C1.81296875,16.2136719 1.77625,16.2074219 1.73796875,16.2011719 C2.04265625,16.5972656 2.2871875,17.0417969 2.45671875,17.5191406 C5.29578125,17.9121094 8.81140625,18.1253906 12.5176563,18.1253906 C16.5621875,18.1253906 20.379375,17.8707031 23.3379688,17.4074219 C23.4942188,16.9277344 23.72625,16.4800781 24.0184375,16.0777344 C23.7582813,16.1253906 23.4817188,16.1722656 23.1832813,16.2191406" id="Fill-4"></path>
                            <path d="M23.7910938,12.3730469 C20.7746875,11.8628906 16.7707813,11.5816406 12.5176563,11.5816406 C8.26453125,11.5816406 4.26140625,11.8628906 1.24421875,12.3730469 C1.15203125,12.3886719 1.0590625,12.4042969 0.96609375,12.4207031 C1.16765625,12.7753906 1.32625,13.1558594 1.43171875,13.5566406 C1.56765625,13.5332031 1.70671875,13.5105469 1.85203125,13.4871094 C4.754375,13.0308594 8.541875,12.7792969 12.5176563,12.7792969 C16.4934375,12.7792969 20.2817188,13.0308594 23.1832813,13.4871094 C23.4864063,13.5355469 23.7684375,13.5832031 24.0325,13.6316406 C24.0598438,13.2246094 24.1403125,12.8308594 24.2660938,12.4558594 C24.1067188,12.4269531 23.948125,12.3996094 23.7910938,12.3730469" id="Fill-5"></path>
                            <path d="M12.5176563,24.3949219 C8.78953125,24.3949219 5.8684375,19.0949219 5.8684375,12.3292969 C5.8684375,5.56445313 8.78953125,0.264453125 12.5176563,0.264453125 C16.2465625,0.264453125 19.1676563,5.56445313 19.1676563,12.3292969 C19.1676563,19.0949219 16.2465625,24.3949219 12.5176563,24.3949219 L12.5176563,24.3949219 Z M12.5176563,1.46289063 C9.56296875,1.46289063 7.06609375,6.43945313 7.06609375,12.3292969 C7.06609375,18.2207031 9.56296875,23.1964844 12.5176563,23.1964844 C15.473125,23.1964844 17.9692188,18.2207031 17.9692188,12.3292969 C17.9692188,6.43945313 15.473125,1.46289063 12.5176563,1.46289063 L12.5176563,1.46289063 Z" id="Fill-6"></path>
                        </g>
                    </g>
                </g>
            </g>
        </g>
    </g>
</svg>