<?xml version="1.0" encoding="utf-8"?>
<!-- Generator: Adobe Illustrator 18.0.0, SVG Export Plug-In . SVG Version: 6.00 Build 0)  -->
<!DOCTYPE svg PUBLIC "-//W3C//DTD SVG 1.1//EN" "http://www.w3.org/Graphics/SVG/1.1/DTD/svg11.dtd">
<svg version="1.1" id="Layer_1" xmlns:sketch="http://www.bohemiancoding.com/sketch/ns"
	 xmlns="http://www.w3.org/2000/svg" xmlns:xlink="http://www.w3.org/1999/xlink" x="0px" y="0px" viewBox="140.5 0.2 48.1 48.2"
	 enable-background="new 140.5 0.2 48.1 48.2" xml:space="preserve">
<title>wannago + Group</title>
<desc>Created with Sketch.</desc>
<g id="Page-1_1_" sketch:type="MSPage">
	<g id="Desktop-HD" transform="translate(-34.000000, -20.000000)" sketch:type="MSArtboardGroup">
		<g id="Imported-EPS" transform="translate(33.000000, 20.000000)" sketch:type="MSLayerGroup">
			<g id="Page-1">
				<g id="wannago-_x2B_-Group">
					<g id="Group" transform="translate(165.000000, 0.000000)" sketch:type="MSShapeGroup">
						<path id="Fill-1" fill="#FFFFFF" d="M0.5,48.3c-13.3,0-24-10.8-24-24c0-13.3,10.8-24,24-24c13.3,0,24,10.8,24,24
							C24.6,37.5,13.8,48.3,0.5,48.3L0.5,48.3z M0.5,2.6c-11.9,0-21.7,9.7-21.7,21.7s9.7,21.7,21.7,21.7s21.7-9.7,21.7-21.7
							S12.5,2.6,0.5,2.6L0.5,2.6z"/>
						<path id="Fill-2" fill="#FFFFFF" d="M-0.7,1.4h2.4v45.7h-2.4V1.4z"/>
						<path id="Fill-3" fill="#FFFFFF" d="M19.9,13c-5.5,0.7-12.3,1.1-19.4,1.1c-7.3,0-14.4-0.4-20-1.2c-0.3,0.8-0.8,1.5-1.3,2.2
							c5.9,0.9,13.4,1.4,21.3,1.4c7.8,0,15.2-0.5,21-1.4C20.9,14.6,20.4,13.8,19.9,13"/>
						<path id="Fill-4" fill="#FFFFFF" d="M21.8,32.1C16,33,8.5,33.5,0.5,33.5s-15.5-0.5-21.3-1.4c-0.1,0-0.2,0-0.2,0
							c0.6,0.8,1.1,1.7,1.4,2.6c5.7,0.8,12.7,1.2,20,1.2c8.1,0,15.7-0.5,21.6-1.4c0.3-1,0.8-1.8,1.4-2.6
							C22.9,31.9,22.4,32,21.8,32.1"/>
						<path id="Fill-5" fill="#FFFFFF" d="M23,24.4c-6-1-14-1.6-22.5-1.6s-16.5,0.6-22.5,1.6c-0.2,0-0.4,0.1-0.6,0.1
							c0.4,0.7,0.7,1.5,0.9,2.3c0.3,0,0.5-0.1,0.8-0.1c5.8-0.9,13.3-1.4,21.3-1.4s15.5,0.5,21.3,1.4c0.6,0.1,1.2,0.2,1.7,0.3
							c0.1-0.8,0.2-1.6,0.5-2.3C23.6,24.5,23.3,24.5,23,24.4"/>
						<path id="Fill-6" fill="#FFFFFF" d="M0.5,48.4c-7.4,0-13.3-10.6-13.3-24c0-13.5,5.8-24,13.3-24c7.4,0,13.3,10.6,13.3,24
							C13.8,37.8,8,48.4,0.5,48.4L0.5,48.4z M0.5,2.7c-5.9,0-10.9,9.9-10.9,21.7c0,11.7,5,21.7,10.9,21.7c5.9,0,10.9-9.9,10.9-21.7
							C11.4,12.6,6.4,2.7,0.5,2.7L0.5,2.7z"/>
					</g>
				</g>
			</g>
		</g>
	</g>
</g>
</svg>
