<?xml version="1.0" encoding="utf-8"?>
<!-- Generator: Adobe Illustrator 18.0.0, SVG Export Plug-In . SVG Version: 6.00 Build 0)  -->
<!DOCTYPE svg PUBLIC "-//W3C//DTD SVG 1.1//EN" "http://www.w3.org/Graphics/SVG/1.1/DTD/svg11.dtd">
<svg version="1.1" id="Layer_1" xmlns:sketch="http://www.bohemiancoding.com/sketch/ns"
	 xmlns="http://www.w3.org/2000/svg" xmlns:xlink="http://www.w3.org/1999/xlink" x="0px" y="0px" viewBox="-265.5 5.6 189.1 47.7"
	 enable-background="new -265.5 5.6 189.1 47.7" xml:space="preserve">
<title>wannago + Group</title>
<desc>Created with Sketch.</desc>
<g id="Page-1_1_" sketch:type="MSPage">
	<g id="Desktop-HD" transform="translate(-34.000000, -20.000000)" sketch:type="MSArtboardGroup">
		<g id="Imported-EPS" transform="translate(33.000000, 20.000000)" sketch:type="MSLayerGroup">
			<g id="Page-1">
				<g id="wannago-_x2B_-Group">
					<g enable-background="new    ">
						<path fill="#FFFFFF" d="M-263.4,24.9h3.3l3.9,10c0.5,1.2,0.8,2.8,0.8,2.8s0.4-1.6,0.9-2.8l4.8-10.3h0.4l4.8,10.3
							c0.6,1.2,1,2.9,1,2.9s0.4-1.7,0.8-2.9l3.9-10h3.1l-7.6,18.6h-0.4l-5-11c-0.5-1.1-0.9-2.7-0.9-2.7s-0.4,1.6-0.9,2.7l-5.1,11
							h-0.4L-263.4,24.9z"/>
						<path fill="#FFFFFF" d="M-220.1,32c0-3.5-1.6-4.9-4.3-4.9c-2.6,0-4.2,1.1-5.3,2.6l-1.9-1.7c1.6-2.2,4-3.5,7.4-3.5
							c4,0,7.1,2.4,7.1,7.4v11.2h-3.1l0.1-2.7c-1.2,1.8-3.1,3.1-6,3.1c-3.9,0-6.7-1.8-6.7-5.5c0-3.7,3.1-5.5,6.9-5.5h5.7V32z
							 M-225.5,34.8c-2.3,0-4.1,0.8-4.1,3c0,2.1,1.5,3.2,4.4,3.2c2.8,0,5.2-1.5,5.2-3.9v-2.3H-225.5z"/>
						<path fill="#FFFFFF" d="M-210.7,24.9h3.1l-0.1,3.7c1.2-2.6,3.6-4.1,6.6-4.1c4,0,6.8,2.8,6.8,7.5v11.1h-3.1V32.4
							c0-3.2-1.5-5.1-4.5-5.1c-3.4,0-5.7,2.2-5.7,5.8v10h-3.1V24.9z"/>
						<path fill="#FFFFFF" d="M-188,24.9h3.1l-0.1,3.7c1.2-2.6,3.6-4.1,6.6-4.1c4,0,6.8,2.8,6.8,7.5v11.1h-3.1V32.4
							c0-3.2-1.5-5.1-4.5-5.1c-3.4,0-5.7,2.2-5.7,5.8v10h-3.1V24.9z"/>
						<path fill="#FFFFFF" d="M-154,32c0-3.5-1.6-4.9-4.3-4.9c-2.6,0-4.2,1.1-5.3,2.6l-1.9-1.7c1.6-2.2,4-3.5,7.4-3.5
							c4,0,7.1,2.4,7.1,7.4v11.2h-3.1l0.1-2.7c-1.2,1.8-3.1,3.1-6,3.1c-3.9,0-6.7-1.8-6.7-5.5c0-3.7,3.1-5.5,6.9-5.5h5.7V32z
							 M-159.4,34.8c-2.3,0-4.1,0.8-4.1,3c0,2.1,1.5,3.2,4.4,3.2c2.8,0,5.2-1.5,5.2-3.9v-2.3H-159.4z"/>
					</g>
					<g>
					</g>
					<g enable-background="new    ">
						<path fill="#FFFFFF" d="M-128.3,24.9v2.3h-3.6c0.9,1,1.5,2.2,1.5,3.7c0,3.7-2.9,6.5-7.1,6.5c-1.4,0-2.7-0.3-3.7-0.8
							c-1,0.3-1.5,1-1.5,1.8c0,1.2,0.8,1.8,2.4,1.8l4.7,0.4c5.2,0.4,7.7,2.3,7.7,5.8c0,4-3.7,6.5-9.7,6.5c-5.9,0-9.3-2.3-9.3-6
							c0-2.5,1.8-4,4.3-4.8c-1.7-0.6-2.6-1.8-2.6-3.4c0-1.5,1-2.7,2.5-3.3c-1.3-1.1-2-2.7-2-4.5c0-3.8,3-6.5,7.3-6.5
							c0.9,0,1.8,0.1,2.6,0.4H-128.3z M-144,46.7c0,2.4,2.1,3.8,6.3,3.8c4.1,0,6.6-1.4,6.6-3.9c0-2-1.2-2.9-5.1-3.2l-4.6-0.3
							C-142.8,43.7-144,44.9-144,46.7z M-133.2,31c0-2.5-1.6-4.1-4.4-4.1c-2.8,0-4.4,1.6-4.4,4.1c0,2.5,1.6,4.1,4.4,4.1
							C-134.8,35.2-133.2,33.5-133.2,31z"/>
						<path fill="#FFFFFF" d="M-125.7,34.1c0-5.3,4.2-9.5,9.7-9.5c5.4,0,9.6,4.2,9.6,9.5c0,5.3-4.2,9.5-9.6,9.5
							C-121.5,43.5-125.7,39.4-125.7,34.1z M-109.5,34.1c0-3.9-2.6-6.8-6.5-6.8c-3.9,0-6.6,2.9-6.6,6.8c0,3.9,2.6,6.8,6.6,6.8
							C-112.1,40.9-109.5,38-109.5,34.1z"/>
					</g>
					<g id="Group" transform="translate(165.000000, 0.000000)" sketch:type="MSShapeGroup">
						<g id="Fill-1">
							<path fill="#FFFFFF" d="M-252.5,29.8c-6.7,0-12.1-5.4-12.1-12.1c0-6.7,5.4-12.1,12.1-12.1c6.7,0,12.1,5.4,12.1,12.1
								C-240.4,24.3-245.8,29.8-252.5,29.8L-252.5,29.8z M-252.5,6.8c-6,0-10.9,4.9-10.9,10.9s4.9,10.9,10.9,10.9
								c6,0,10.9-4.9,10.9-10.9S-246.5,6.8-252.5,6.8L-252.5,6.8z"/>
						</g>
						<g id="Fill-2">
							<path fill="#FFFFFF" d="M-253.1,6.2h1.2v22.9h-1.2V6.2z"/>
						</g>
						<g id="Fill-3">
							<path fill="#FFFFFF" d="M-242.8,12.1c-2.8,0.4-6.2,0.6-9.7,0.6c-3.7,0-7.2-0.2-10-0.6c-0.2,0.4-0.4,0.8-0.7,1.1
								c2.9,0.4,6.7,0.7,10.7,0.7c3.9,0,7.6-0.2,10.6-0.7C-242.3,12.8-242.5,12.5-242.8,12.1"/>
						</g>
						<g id="Fill-4">
							<path fill="#FFFFFF" d="M-241.8,21.6c-2.9,0.5-6.7,0.7-10.7,0.7s-7.8-0.3-10.7-0.7c0,0-0.1,0-0.1,0c0.3,0.4,0.5,0.8,0.7,1.3
								c2.8,0.4,6.4,0.6,10.1,0.6c4,0,7.9-0.3,10.8-0.7c0.2-0.5,0.4-0.9,0.7-1.3C-241.2,21.5-241.5,21.6-241.8,21.6"/>
						</g>
						<g id="Fill-5">
							<path fill="#FFFFFF" d="M-241.2,17.8c-3-0.5-7-0.8-11.3-0.8s-8.3,0.3-11.3,0.8c-0.1,0-0.2,0-0.3,0c0.2,0.4,0.4,0.7,0.5,1.1
								c0.1,0,0.3,0,0.4-0.1c2.9-0.5,6.7-0.7,10.7-0.7s7.8,0.3,10.7,0.7c0.3,0,0.6,0.1,0.8,0.1c0-0.4,0.1-0.8,0.2-1.2
								C-240.9,17.8-241.1,17.8-241.2,17.8"/>
						</g>
						<g id="Fill-6">
							<path fill="#FFFFFF" d="M-252.5,29.8c-3.7,0-6.6-5.3-6.6-12.1c0-6.8,2.9-12.1,6.6-12.1c3.7,0,6.7,5.3,6.7,12.1
								C-245.8,24.5-248.8,29.8-252.5,29.8L-252.5,29.8z M-252.5,6.9c-3,0-5.5,5-5.5,10.9c0,5.9,2.5,10.9,5.5,10.9
								c3,0,5.5-5,5.5-10.9C-247,11.8-249.5,6.9-252.5,6.9L-252.5,6.9z"/>
						</g>
					</g>
				</g>
			</g>
		</g>
	</g>
</g>
</svg>
