<?xml version="1.0" encoding="utf-8"?>
<!-- Generator: Adobe Illustrator 18.0.0, SVG Export Plug-In . SVG Version: 6.00 Build 0)  -->
<!DOCTYPE svg PUBLIC "-//W3C//DTD SVG 1.1//EN" "http://www.w3.org/Graphics/SVG/1.1/DTD/svg11.dtd">
<svg version="1.1" id="Layer_1" xmlns="http://www.w3.org/2000/svg" xmlns:xlink="http://www.w3.org/1999/xlink" x="0px" y="0px"
	 viewBox="0 0 98.4 98.4" enable-background="new 0 0 98.4 98.4" xml:space="preserve">
<g>
	<path fill="#FFFFFF" d="M91.2,38.1l-7.5-1.7c-0.4-1.1-0.9-2.1-1.4-3.1l3.4-5.4c2.8-2.8,2.8-7.4,0-10.2l-5.2-5.2
		c-2.8-2.8-7.4-2.8-10.2,0L64.5,16c-1.3-0.6-2.7-1.1-4.1-1.6l-1.7-7.2c0-4-3.2-7.2-7.2-7.2h-7.4c-4,0-7.2,3.2-7.2,7.2L35,15.5
		c-1.3,0.5-2.5,1.1-3.7,1.8l-4.9-3.1c-2.8-2.8-7.4-2.8-10.2,0L11,19.5c-2.8,2.8-2.8,7.4,0,10.2l3.9,6.2c-0.3,0.6-0.5,1.3-0.7,2
		l-7,1.6c-4,0-7.2,3.2-7.2,7.2v7.4c0,4,3.2,7.2,7.2,7.2l7.5,1.7c0.4,1,0.8,2.1,1.3,3.1l-4.2,6.8C9,75.6,9,80.2,11.8,83l5.2,5.2
		c2.8,2.8,7.4,2.8,10.2,0l7.3-4.6c0.7,0.3,1.4,0.6,2.2,0.9l1.5,6.7c0,4,3.2,7.2,7.2,7.2h7.4c4,0,7.2-3.2,7.2-7.2l1.5-6.7
		c0.8-0.3,1.6-0.6,2.4-1l7.3,4.6c2.8,2.8,7.4,2.8,10.2,0l5.2-5.2c2.8-2.8,2.8-7.4,0-10.2l-4.3-6.9c0.7-1.4,1.2-2.8,1.7-4.3l7-1.6
		c4,0,7.2-3.2,7.2-7.2v-7.4C98.4,41.3,95.2,38.1,91.2,38.1z M49.2,66.3c-9.2,0-16.6-7.4-16.6-16.6S40,33,49.2,33s16.6,7.4,16.6,16.6
		S58.4,66.3,49.2,66.3z"/>
</g>
</svg>
