<?xml version="1.0" encoding="utf-8"?>
<!-- Generator: Adobe Illustrator 18.0.0, SVG Export Plug-In . SVG Version: 6.00 Build 0)  -->
<!DOCTYPE svg PUBLIC "-//W3C//DTD SVG 1.1//EN" "http://www.w3.org/Graphics/SVG/1.1/DTD/svg11.dtd">
<svg version="1.1" id="Layer_1" xmlns="http://www.w3.org/2000/svg" xmlns:xlink="http://www.w3.org/1999/xlink" x="0px" y="0px"
	 viewBox="0 0 792 612" enable-background="new 0 0 792 612" xml:space="preserve">
<g>
	<path fill="#FFFFFF" d="M689.7,497.6L501.6,321.2c15.3-28.9,24-61.8,24-96.8c0-114.3-92.7-207-207-207s-207,92.7-207,207
		s92.7,207,207,207c34.8,0,67.5-8.6,96.3-23.7l191.1,179.2c11.6,10.8,29.9,10.3,40.7-1.3l44.3-47.2
		C701.8,526.8,701.2,508.4,689.7,497.6z M318.6,335.2c-61.2,0-110.8-49.6-110.8-110.8s49.6-110.8,110.8-110.8
		s110.8,49.6,110.8,110.8S379.8,335.2,318.6,335.2z"/>
</g>
</svg>
