<?xml version="1.0" encoding="utf-8"?>
<!-- Generator: Adobe Illustrator 18.0.0, SVG Export Plug-In . SVG Version: 6.00 Build 0)  -->
<!DOCTYPE svg PUBLIC "-//W3C//DTD SVG 1.1//EN" "http://www.w3.org/Graphics/SVG/1.1/DTD/svg11.dtd">
<svg version="1.1" id="Layer_1" xmlns="http://www.w3.org/2000/svg" xmlns:xlink="http://www.w3.org/1999/xlink" x="0px" y="0px"
	 viewBox="0 0 380.9 338.1" enable-background="new 0 0 380.9 338.1" xml:space="preserve">
<g>
	<path fill="#555555" d="M351.4,0H151.1c-16.3,0-29.5,13.2-29.5,29.5v43H90.3C74,72.5,60.8,85.7,60.8,102v43H29.5
		C13.2,144.9,0,158.2,0,174.4v134.2c0,16.3,13.2,29.5,29.5,29.5h200.3c16.3,0,29.5-13.2,29.5-29.5v-43h31.3
		c16.3,0,29.5-13.2,29.5-29.5v-43h31.3c16.3,0,29.5-13.2,29.5-29.5V29.5C380.9,13.2,367.7,0,351.4,0z M224.3,303.1H35V179.9h189.3
		V303.1z M285.1,230.6h-25.8v-56.2c0-16.3-13.2-29.5-29.5-29.5h-134v-37.5h189.3V230.6z M345.9,158.2h-25.8V102
		c0-16.3-13.2-29.5-29.5-29.5h-134V35h189.3V158.2z"/>
</g>
</svg>
